<?xml version="1.0" standalone="yes"?>

<svg version="1.1" viewBox="0.0 0.0 960.0 720.0" fill="none" stroke="none" stroke-linecap="square" stroke-miterlimit="10" xmlns="http://www.w3.org/2000/svg" xmlns:xlink="http://www.w3.org/1999/xlink"><clipPath id="p.0"><path d="m0 0l960.0 0l0 720.0l-960.0 0l0 -720.0z" clip-rule="nonzero"></path></clipPath><g clip-path="url(#p.0)"><path fill="#000000" d="m0 0l960.0 0l0 720.0l-960.0 0z" fill-rule="nonzero"></path><path fill="#cfe2f3" d="m83.363716 8.563497l208.09448 0l0 208.0945l-208.09448 0z" fill-rule="nonzero"></path><path stroke="#000000" stroke-width="2.0" stroke-linejoin="round" stroke-linecap="butt" d="m83.363716 8.563497l208.09448 0l0 208.0945l-208.09448 0z" fill-rule="nonzero"></path><path fill="#000000" d="m149.99689 123.18105l8.796875 -22.90625l3.265625 0l9.375 22.90625l-3.453125 0l-2.671875 -6.9375l-9.578125 0l-2.515625 6.9375l-3.21875 0zm6.609375 -9.40625l7.765625 0l-2.390625 -6.34375q-1.09375 -2.890625 -1.625 -4.75q-0.4375 2.203125 -1.234375 4.375l-2.515625 6.71875zm16.890625 15.765617l0 -22.953117l2.5625 0l0 2.15625q0.90625 -1.265625 2.046875 -1.890625q1.140625 -0.640625 2.765625 -0.640625q2.125 0 3.75 1.09375q1.625 1.09375 2.453125 3.09375q0.828125 1.984375 0.828125 4.359375q0 2.546875 -0.921875 4.59375q-0.90625 2.03125 -2.65625 3.125q-1.734375 1.078125 -3.65625 1.078125q-1.40625 0 -2.53125 -0.59375q-1.109375 -0.59375 -1.828125 -1.5l0 8.078117l-2.8125 0zm2.546875 -14.562492q0 3.203125 1.296875 4.734375q1.296875 1.53125 3.140625 1.53125q1.875 0 3.203125 -1.578125q1.34375 -1.59375 1.34375 -4.921875q0 -3.171875 -1.3125 -4.75q-1.296875 -1.578125 -3.109375 -1.578125q-1.796875 0 -3.1875 1.6875q-1.375 1.671875 -1.375 4.875zm15.25 14.562492l0 -22.953117l2.5625 0l0 2.15625q0.90625 -1.265625 2.046875 -1.890625q1.140625 -0.640625 2.765625 -0.640625q2.125 0 3.75 1.09375q1.625 1.09375 2.453125 3.09375q0.828125 1.984375 0.828125 4.359375q0 2.546875 -0.921875 4.59375q-0.90625 2.03125 -2.65625 3.125q-1.734375 1.078125 -3.65625 1.078125q-1.40625 0 -2.53125 -0.59375q-1.109375 -0.59375 -1.828125 -1.5l0 8.078117l-2.8125 0zm2.546875 -14.562492q0 3.203125 1.296875 4.734375q1.296875 1.53125 3.140625 1.53125q1.875 0 3.203125 -1.578125q1.34375 -1.59375 1.34375 -4.921875q0 -3.171875 -1.3125 -4.75q-1.296875 -1.578125 -3.109375 -1.578125q-1.796875 0 -3.1875 1.6875q-1.375 1.671875 -1.375 4.875zm25.0625 8.203125l-2.8125 0l0 -17.921875q-1.015625 0.96875 -2.671875 1.9375q-1.640625 0.96875 -2.953125 1.453125l0 -2.71875q2.359375 -1.109375 4.125 -2.6875q1.765625 -1.578125 2.5 -3.0625l1.8125 0l0 23.0z" fill-rule="nonzero"></path><path fill="#cfe2f3" d="m83.363716 494.07062l208.09448 0l0 208.09448l-208.09448 0z" fill-rule="nonzero"></path><path stroke="#000000" stroke-width="2.0" stroke-linejoin="round" stroke-linecap="butt" d="m83.363716 494.07062l208.09448 0l0 208.09448l-208.09448 0z" fill-rule="nonzero"></path><path fill="#000000" d="m149.99689 608.6882l8.796875 -22.90625l3.265625 0l9.375 22.90625l-3.453125 0l-2.671875 -6.9375l-9.578125 0l-2.515625 6.9375l-3.21875 0zm6.609375 -9.40625l7.765625 0l-2.390625 -6.34375q-1.09375 -2.890625 -1.625 -4.75q-0.4375 2.203125 -1.234375 4.375l-2.515625 6.71875zm16.890625 15.765625l0 -22.953125l2.5625 0l0 2.15625q0.90625 -1.265625 2.046875 -1.890625q1.140625 -0.640625 2.765625 -0.640625q2.125 0 3.75 1.09375q1.625 1.09375 2.453125 3.09375q0.828125 1.984375 0.828125 4.359375q0 2.546875 -0.921875 4.59375q-0.90625 2.03125 -2.65625 3.125q-1.734375 1.078125 -3.65625 1.078125q-1.40625 0 -2.53125 -0.59375q-1.109375 -0.59375 -1.828125 -1.5l0 8.078125l-2.8125 0zm2.546875 -14.5625q0 3.203125 1.296875 4.734375q1.296875 1.53125 3.140625 1.53125q1.875 0 3.203125 -1.578125q1.34375 -1.59375 1.34375 -4.921875q0 -3.171875 -1.3125 -4.75q-1.296875 -1.578125 -3.109375 -1.578125q-1.796875 0 -3.1875 1.6875q-1.375 1.671875 -1.375 4.875zm15.25 14.5625l0 -22.953125l2.5625 0l0 2.15625q0.90625 -1.265625 2.046875 -1.890625q1.140625 -0.640625 2.765625 -0.640625q2.125 0 3.75 1.09375q1.625 1.09375 2.453125 3.09375q0.828125 1.984375 0.828125 4.359375q0 2.546875 -0.921875 4.59375q-0.90625 2.03125 -2.65625 3.125q-1.734375 1.078125 -3.65625 1.078125q-1.40625 0 -2.53125 -0.59375q-1.109375 -0.59375 -1.828125 -1.5l0 8.078125l-2.8125 0zm2.546875 -14.5625q0 3.203125 1.296875 4.734375q1.296875 1.53125 3.140625 1.53125q1.875 0 3.203125 -1.578125q1.34375 -1.59375 1.34375 -4.921875q0 -3.171875 -1.3125 -4.75q-1.296875 -1.578125 -3.109375 -1.578125q-1.796875 0 -3.1875 1.6875q-1.375 1.671875 -1.375 4.875zm29.25 5.5l0 2.703125l-15.140625 0q-0.03125 -1.015625 0.328125 -1.953125q0.578125 -1.546875 1.84375 -3.046875q1.28125 -1.5 3.6875 -3.46875q3.734375 -3.0625 5.046875 -4.84375q1.3125 -1.796875 1.3125 -3.390625q0 -1.671875 -1.203125 -2.8125q-1.1875 -1.15625 -3.109375 -1.15625q-2.03125 0 -3.25 1.21875q-1.21875 1.21875 -1.234375 3.375l-2.890625 -0.296875q0.296875 -3.234375 2.234375 -4.921875q1.9375 -1.703125 5.203125 -1.703125q3.296875 0 5.21875 1.828125q1.921875 1.828125 1.921875 4.53125q0 1.375 -0.5625 2.703125q-0.5625 1.328125 -1.875 2.796875q-1.296875 1.46875 -4.328125 4.03125q-2.53125 2.125 -3.25 2.890625q-0.71875 0.75 -1.1875 1.515625l11.234375 0z" fill-rule="nonzero"></path><path fill="#cfe2f3" d="m676.17346 8.563497l208.09448 0l0 208.0945l-208.09448 0z" fill-rule="nonzero"></path><path stroke="#000000" stroke-width="2.0" stroke-linejoin="round" stroke-linecap="butt" d="m676.17346 8.563497l208.09448 0l0 208.0945l-208.09448 0z" fill-rule="nonzero"></path><path fill="#000000" d="m751.56445 123.18105l0 -22.90625l7.890625 0q2.671875 0 4.078125 0.328125q1.96875 0.453125 3.359375 1.640625q1.8125 1.53125 2.703125 3.921875q0.90625 2.375 0.90625 5.4375q0 2.609375 -0.609375 4.625q-0.609375 2.015625 -1.5625 3.34375q-0.953125 1.3125 -2.09375 2.078125q-1.125 0.75 -2.734375 1.140625q-1.59375 0.390625 -3.671875 0.390625l-8.265625 0zm3.03125 -2.703125l4.890625 0q2.265625 0 3.546875 -0.421875q1.296875 -0.421875 2.0625 -1.1875q1.078125 -1.078125 1.671875 -2.890625q0.609375 -1.828125 0.609375 -4.421875q0 -3.59375 -1.1875 -5.515625q-1.171875 -1.9375 -2.859375 -2.59375q-1.21875 -0.46875 -3.921875 -0.46875l-4.8125 0l0 17.5zm19.953125 2.703125l0 -22.90625l8.59375 0q2.625 0 4.203125 0.703125q1.59375 0.6875 2.484375 2.140625q0.90625 1.4375 0.90625 3.015625q0 1.46875 -0.796875 2.765625q-0.796875 1.296875 -2.40625 2.09375q2.078125 0.609375 3.1875 2.078125q1.125 1.46875 1.125 3.46875q0 1.609375 -0.6875 3.0q-0.671875 1.375 -1.671875 2.125q-1.0 0.75 -2.515625 1.140625q-1.5 0.375 -3.6875 0.375l-8.734375 0zm3.03125 -13.28125l4.953125 0q2.015625 0 2.890625 -0.265625q1.15625 -0.34375 1.734375 -1.140625q0.59375 -0.796875 0.59375 -2.0q0 -1.140625 -0.546875 -2.0q-0.546875 -0.875 -1.5625 -1.1875q-1.015625 -0.328125 -3.484375 -0.328125l-4.578125 0l0 6.921875zm0 10.578125l5.703125 0q1.46875 0 2.0625 -0.109375q1.046875 -0.1875 1.75 -0.625q0.703125 -0.4375 1.15625 -1.265625q0.453125 -0.84375 0.453125 -1.9375q0 -1.28125 -0.65625 -2.21875q-0.65625 -0.953125 -1.828125 -1.328125q-1.15625 -0.390625 -3.34375 -0.390625l-5.296875 0l0 7.875zm27.890625 2.703125l-2.8125 0l0 -17.921875q-1.015625 0.96875 -2.671875 1.9375q-1.640625 0.96875 -2.953125 1.453125l0 -2.71875q2.359375 -1.109375 4.125 -2.6875q1.765625 -1.578125 2.5 -3.0625l1.8125 0l0 23.0z" fill-rule="nonzero"></path><path stroke="#ffffff" stroke-width="2.0" stroke-linejoin="round" stroke-linecap="butt" d="m291.45822 112.61074l377.8611 0" fill-rule="evenodd"></path><path fill="#ffffff" stroke="#ffffff" stroke-width="2.0" stroke-linecap="butt" d="m669.3193 112.61074l-2.2491455 2.2491684l6.1795654 -2.2491684l-6.1795654 -2.2491684z" fill-rule="evenodd"></path><path fill="#cfe2f3" d="m676.17346 494.07062l208.09448 0l0 208.09448l-208.09448 0z" fill-rule="nonzero"></path><path stroke="#000000" stroke-width="2.0" stroke-linejoin="round" stroke-linecap="butt" d="m676.17346 494.07062l208.09448 0l0 208.09448l-208.09448 0z" fill-rule="nonzero"></path><path fill="#000000" d="m751.56445 608.6882l0 -22.90625l7.890625 0q2.671875 0 4.078125 0.328125q1.96875 0.453125 3.359375 1.640625q1.8125 1.53125 2.703125 3.921875q0.90625 2.375 0.90625 5.4375q0 2.609375 -0.609375 4.625q-0.609375 2.015625 -1.5625 3.34375q-0.953125 1.3125 -2.09375 2.078125q-1.125 0.75 -2.734375 1.140625q-1.59375 0.390625 -3.671875 0.390625l-8.265625 0zm3.03125 -2.703125l4.890625 0q2.265625 0 3.546875 -0.421875q1.296875 -0.421875 2.0625 -1.1875q1.078125 -1.078125 1.671875 -2.890625q0.609375 -1.828125 0.609375 -4.421875q0 -3.59375 -1.1875 -5.515625q-1.171875 -1.9375 -2.859375 -2.59375q-1.21875 -0.46875 -3.921875 -0.46875l-4.8125 0l0 17.5zm19.953125 2.703125l0 -22.90625l8.59375 0q2.625 0 4.203125 0.703125q1.59375 0.6875 2.484375 2.140625q0.90625 1.4375 0.90625 3.015625q0 1.46875 -0.796875 2.765625q-0.796875 1.296875 -2.40625 2.09375q2.078125 0.609375 3.1875 2.078125q1.125 1.46875 1.125 3.46875q0 1.609375 -0.6875 3.0q-0.671875 1.375 -1.671875 2.125q-1.0 0.75 -2.515625 1.140625q-1.5 0.375 -3.6875 0.375l-8.734375 0zm3.03125 -13.28125l4.953125 0q2.015625 0 2.890625 -0.265625q1.15625 -0.34375 1.734375 -1.140625q0.59375 -0.796875 0.59375 -2.0q0 -1.140625 -0.546875 -2.0q-0.546875 -0.875 -1.5625 -1.1875q-1.015625 -0.328125 -3.484375 -0.328125l-4.578125 0l0 6.921875zm0 10.578125l5.703125 0q1.46875 0 2.0625 -0.109375q1.046875 -0.1875 1.75 -0.625q0.703125 -0.4375 1.15625 -1.265625q0.453125 -0.84375 0.453125 -1.9375q0 -1.28125 -0.65625 -2.21875q-0.65625 -0.953125 -1.828125 -1.328125q-1.15625 -0.390625 -3.34375 -0.390625l-5.296875 0l0 7.875zm32.078125 0l0 2.703125l-15.140625 0q-0.03125 -1.015625 0.328125 -1.953125q0.578125 -1.546875 1.84375 -3.046875q1.28125 -1.5 3.6875 -3.46875q3.734375 -3.0625 5.046875 -4.84375q1.3125 -1.796875 1.3125 -3.390625q0 -1.671875 -1.203125 -2.8125q-1.1875 -1.15625 -3.109375 -1.15625q-2.03125 0 -3.25 1.21875q-1.21875 1.21875 -1.234375 3.375l-2.890625 -0.296875q0.296875 -3.234375 2.234375 -4.921875q1.9375 -1.703125 5.203125 -1.703125q3.296875 0 5.21875 1.828125q1.921875 1.828125 1.921875 4.53125q0 1.375 -0.5625 2.703125q-0.5625 1.328125 -1.875 2.796875q-1.296875 1.46875 -4.328125 4.03125q-2.53125 2.125 -3.25 2.890625q-0.71875 0.75 -1.1875 1.515625l11.234375 0z" fill-rule="nonzero"></path><path stroke="#ffffff" stroke-width="2.0" stroke-linejoin="round" stroke-linecap="butt" d="m291.45822 598.11786l377.8611 0" fill-rule="evenodd"></path><path fill="#ffffff" stroke="#ffffff" stroke-width="2.0" stroke-linecap="butt" d="m669.3193 598.11786l-2.2491455 2.2491455l6.1795654 -2.2491455l-6.1795654 -2.2491455z" fill-rule="evenodd"></path><path stroke="#ffffff" stroke-width="8.0" stroke-linejoin="round" stroke-linecap="butt" d="m187.41096 244.07l0 202.00061" fill-rule="evenodd"></path><path fill="#ffffff" stroke="#ffffff" stroke-width="8.0" stroke-linecap="butt" d="m187.41096 244.07l8.996674 8.996674l-8.996674 -24.71814l-8.996674 24.71814z" fill-rule="evenodd"></path><path fill="#ffffff" stroke="#ffffff" stroke-width="8.0" stroke-linecap="butt" d="m174.19711 446.07062l13.213852 36.30478l13.213867 -36.30478z" fill-rule="evenodd"></path><path fill="#ffff00" d="m105.87139 323.36462l0 0c0 -8.836731 7.1635895 -16.000305 16.00032 -16.000305l464.81824 0c4.2435913 0 8.313293 1.68573 11.313965 4.686371c3.0006104 3.0006409 4.6864014 7.070404 4.6864014 11.313934l0 63.99936c0 8.836731 -7.1636353 16.000336 -16.000366 16.000336l-464.81824 0l0 0c-8.836731 0 -16.00032 -7.1636047 -16.00032 -16.000336z" fill-rule="nonzero"></path><path stroke="#000000" stroke-width="2.0" stroke-linejoin="round" stroke-linecap="butt" d="m105.87139 323.36462l0 0c0 -8.836731 7.1635895 -16.000305 16.00032 -16.000305l464.81824 0c4.2435913 0 8.313293 1.68573 11.313965 4.686371c3.0006104 3.0006409 4.6864014 7.070404 4.6864014 11.313934l0 63.99936c0 8.836731 -7.1636353 16.000336 -16.000366 16.000336l-464.81824 0l0 0c-8.836731 0 -16.00032 -7.1636047 -16.00032 -16.000336z" fill-rule="nonzero"></path><path fill="#000000" d="m298.03867 365.93463l0 -22.90625l3.109375 0l12.03125 17.984375l0 -17.984375l2.90625 0l0 22.90625l-3.109375 0l-12.03125 -18.0l0 18.0l-2.90625 0zm34.140625 -5.34375l2.90625 0.359375q-0.6875 2.546875 -2.546875 3.953125q-1.859375 1.40625 -4.75 1.40625q-3.640625 0 -5.78125 -2.234375q-2.125 -2.25 -2.125 -6.296875q0 -4.1875 2.15625 -6.5q2.15625 -2.3125 5.59375 -2.3125q3.328125 0 5.4375 2.265625q2.109375 2.265625 2.109375 6.375q0 0.25 -0.015625 0.75l-12.375 0q0.15625 2.734375 1.546875 4.1875q1.390625 1.453125 3.46875 1.453125q1.546875 0 2.640625 -0.8125q1.09375 -0.8125 1.734375 -2.59375zm-9.234375 -4.546875l9.265625 0q-0.1875 -2.09375 -1.0625 -3.140625q-1.34375 -1.625 -3.484375 -1.625q-1.9375 0 -3.265625 1.296875q-1.3125 1.296875 -1.453125 3.46875zm21.8125 7.375l0.40625 2.484375q-1.1875 0.25 -2.125 0.25q-1.53125 0 -2.375 -0.484375q-0.84375 -0.484375 -1.1875 -1.265625q-0.34375 -0.796875 -0.34375 -3.328125l0 -9.546875l-2.0625 0l0 -2.1875l2.0625 0l0 -4.109375l2.796875 -1.6875l0 5.796875l2.828125 0l0 2.1875l-2.828125 0l0 9.703125q0 1.203125 0.140625 1.546875q0.15625 0.34375 0.484375 0.546875q0.34375 0.203125 0.96875 0.203125q0.46875 0 1.234375 -0.109375zm5.8125 2.515625l-5.078125 -16.59375l2.90625 0l2.640625 9.578125l0.984375 3.5625q0.0625 -0.265625 0.859375 -3.421875l2.640625 -9.71875l2.890625 0l2.484375 9.625l0.828125 3.171875l0.953125 -3.203125l2.84375 -9.59375l2.734375 0l-5.1875 16.59375l-2.921875 0l-2.640625 -9.9375l-0.640625 -2.828125l-3.359375 12.765625l-2.9375 0zm19.0 -8.296875q0 -4.609375 2.5625 -6.828125q2.140625 -1.84375 5.21875 -1.84375q3.421875 0 5.59375 2.25q2.171875 2.234375 2.171875 6.1875q0 3.203125 -0.96875 5.046875q-0.953125 1.828125 -2.796875 2.84375q-1.828125 1.015625 -4.0 1.015625q-3.484375 0 -5.640625 -2.234375q-2.140625 -2.234375 -2.140625 -6.4375zm2.890625 0q0 3.1875 1.390625 4.78125q1.390625 1.578125 3.5 1.578125q2.09375 0 3.484375 -1.59375q1.390625 -1.59375 1.390625 -4.859375q0 -3.078125 -1.40625 -4.65625q-1.390625 -1.59375 -3.46875 -1.59375q-2.109375 0 -3.5 1.578125q-1.390625 1.578125 -1.390625 4.765625zm15.921875 8.296875l0 -16.59375l2.53125 0l0 2.515625q0.96875 -1.765625 1.78125 -2.328125q0.828125 -0.5625 1.8125 -0.5625q1.421875 0 2.890625 0.90625l-0.96875 2.609375q-1.03125 -0.609375 -2.0625 -0.609375q-0.921875 0 -1.65625 0.5625q-0.734375 0.546875 -1.046875 1.53125q-0.46875 1.5 -0.46875 3.28125l0 8.6875l-2.8125 0zm10.703125 0l0 -22.90625l2.8125 0l0 13.0625l6.65625 -6.75l3.640625 0l-6.34375 6.15625l6.984375 10.4375l-3.46875 0l-5.484375 -8.484375l-1.984375 1.90625l0 6.578125l-2.8125 0z" fill-rule="nonzero"></path></g></svg>

