<?xml version="1.0" standalone="yes"?>

<svg version="1.1" viewBox="0.0 0.0 960.0 720.0" fill="none" stroke="none" stroke-linecap="square" stroke-miterlimit="10" xmlns="http://www.w3.org/2000/svg" xmlns:xlink="http://www.w3.org/1999/xlink"><clipPath id="p.0"><path d="m0 0l960.0 0l0 720.0l-960.0 0l0 -720.0z" clip-rule="nonzero"></path></clipPath><g clip-path="url(#p.0)"><path fill="#000000" d="m0 0l960.0 0l0 720.0l-960.0 0z" fill-rule="nonzero"></path><path fill="#cfe2f3" d="m83.363716 8.563497l208.09448 0l0 208.0945l-208.09448 0z" fill-rule="nonzero"></path><path stroke="#000000" stroke-width="2.0" stroke-linejoin="round" stroke-linecap="butt" d="m83.363716 8.563497l208.09448 0l0 208.0945l-208.09448 0z" fill-rule="nonzero"></path><path fill="#000000" d="m158.89532 123.18105l8.796875 -22.90625l3.265625 0l9.375 22.90625l-3.453125 0l-2.671875 -6.9375l-9.578125 0l-2.515625 6.9375l-3.21875 0zm6.609375 -9.40625l7.765625 0l-2.390625 -6.34375q-1.09375 -2.890625 -1.625 -4.75q-0.4375 2.203125 -1.234375 4.375l-2.515625 6.71875zm16.890625 15.765617l0 -22.953117l2.5625 0l0 2.15625q0.90625 -1.265625 2.046875 -1.890625q1.140625 -0.640625 2.765625 -0.640625q2.125 0 3.75 1.09375q1.625 1.09375 2.453125 3.09375q0.828125 1.984375 0.828125 4.359375q0 2.546875 -0.921875 4.59375q-0.90625 2.03125 -2.65625 3.125q-1.734375 1.078125 -3.65625 1.078125q-1.40625 0 -2.53125 -0.59375q-1.109375 -0.59375 -1.828125 -1.5l0 8.078117l-2.8125 0zm2.546875 -14.562492q0 3.203125 1.296875 4.734375q1.296875 1.53125 3.140625 1.53125q1.875 0 3.203125 -1.578125q1.34375 -1.59375 1.34375 -4.921875q0 -3.171875 -1.3125 -4.75q-1.296875 -1.578125 -3.109375 -1.578125q-1.796875 0 -3.1875 1.6875q-1.375 1.671875 -1.375 4.875zm15.25 14.562492l0 -22.953117l2.5625 0l0 2.15625q0.90625 -1.265625 2.046875 -1.890625q1.140625 -0.640625 2.765625 -0.640625q2.125 0 3.75 1.09375q1.625 1.09375 2.453125 3.09375q0.828125 1.984375 0.828125 4.359375q0 2.546875 -0.921875 4.59375q-0.90625 2.03125 -2.65625 3.125q-1.734375 1.078125 -3.65625 1.078125q-1.40625 0 -2.53125 -0.59375q-1.109375 -0.59375 -1.828125 -1.5l0 8.078117l-2.8125 0zm2.546875 -14.562492q0 3.203125 1.296875 4.734375q1.296875 1.53125 3.140625 1.53125q1.875 0 3.203125 -1.578125q1.34375 -1.59375 1.34375 -4.921875q0 -3.171875 -1.3125 -4.75q-1.296875 -1.578125 -3.109375 -1.578125q-1.796875 0 -3.1875 1.6875q-1.375 1.671875 -1.375 4.875z" fill-rule="nonzero"></path><path fill="#cfe2f3" d="m83.363716 251.31706l208.09448 0l0 208.0945l-208.09448 0z" fill-rule="nonzero"></path><path stroke="#000000" stroke-width="2.0" stroke-linejoin="round" stroke-linecap="butt" d="m83.363716 251.31706l208.09448 0l0 208.0945l-208.09448 0z" fill-rule="nonzero"></path><path fill="#000000" d="m158.89532 365.93463l8.796875 -22.90625l3.265625 0l9.375 22.90625l-3.453125 0l-2.671875 -6.9375l-9.578125 0l-2.515625 6.9375l-3.21875 0zm6.609375 -9.40625l7.765625 0l-2.390625 -6.34375q-1.09375 -2.890625 -1.625 -4.75q-0.4375 2.203125 -1.234375 4.375l-2.515625 6.71875zm16.890625 15.765625l0 -22.953125l2.5625 0l0 2.15625q0.90625 -1.265625 2.046875 -1.890625q1.140625 -0.640625 2.765625 -0.640625q2.125 0 3.75 1.09375q1.625 1.09375 2.453125 3.09375q0.828125 1.984375 0.828125 4.359375q0 2.546875 -0.921875 4.59375q-0.90625 2.03125 -2.65625 3.125q-1.734375 1.078125 -3.65625 1.078125q-1.40625 0 -2.53125 -0.59375q-1.109375 -0.59375 -1.828125 -1.5l0 8.078125l-2.8125 0zm2.546875 -14.5625q0 3.203125 1.296875 4.734375q1.296875 1.53125 3.140625 1.53125q1.875 0 3.203125 -1.578125q1.34375 -1.59375 1.34375 -4.921875q0 -3.171875 -1.3125 -4.75q-1.296875 -1.578125 -3.109375 -1.578125q-1.796875 0 -3.1875 1.6875q-1.375 1.671875 -1.375 4.875zm15.25 14.5625l0 -22.953125l2.5625 0l0 2.15625q0.90625 -1.265625 2.046875 -1.890625q1.140625 -0.640625 2.765625 -0.640625q2.125 0 3.75 1.09375q1.625 1.09375 2.453125 3.09375q0.828125 1.984375 0.828125 4.359375q0 2.546875 -0.921875 4.59375q-0.90625 2.03125 -2.65625 3.125q-1.734375 1.078125 -3.65625 1.078125q-1.40625 0 -2.53125 -0.59375q-1.109375 -0.59375 -1.828125 -1.5l0 8.078125l-2.8125 0zm2.546875 -14.5625q0 3.203125 1.296875 4.734375q1.296875 1.53125 3.140625 1.53125q1.875 0 3.203125 -1.578125q1.34375 -1.59375 1.34375 -4.921875q0 -3.171875 -1.3125 -4.75q-1.296875 -1.578125 -3.109375 -1.578125q-1.796875 0 -3.1875 1.6875q-1.375 1.671875 -1.375 4.875z" fill-rule="nonzero"></path><path fill="#cfe2f3" d="m83.363716 494.07062l208.09448 0l0 208.09448l-208.09448 0z" fill-rule="nonzero"></path><path stroke="#000000" stroke-width="2.0" stroke-linejoin="round" stroke-linecap="butt" d="m83.363716 494.07062l208.09448 0l0 208.09448l-208.09448 0z" fill-rule="nonzero"></path><path fill="#000000" d="m158.89532 608.6882l8.796875 -22.90625l3.265625 0l9.375 22.90625l-3.453125 0l-2.671875 -6.9375l-9.578125 0l-2.515625 6.9375l-3.21875 0zm6.609375 -9.40625l7.765625 0l-2.390625 -6.34375q-1.09375 -2.890625 -1.625 -4.75q-0.4375 2.203125 -1.234375 4.375l-2.515625 6.71875zm16.890625 15.765625l0 -22.953125l2.5625 0l0 2.15625q0.90625 -1.265625 2.046875 -1.890625q1.140625 -0.640625 2.765625 -0.640625q2.125 0 3.75 1.09375q1.625 1.09375 2.453125 3.09375q0.828125 1.984375 0.828125 4.359375q0 2.546875 -0.921875 4.59375q-0.90625 2.03125 -2.65625 3.125q-1.734375 1.078125 -3.65625 1.078125q-1.40625 0 -2.53125 -0.59375q-1.109375 -0.59375 -1.828125 -1.5l0 8.078125l-2.8125 0zm2.546875 -14.5625q0 3.203125 1.296875 4.734375q1.296875 1.53125 3.140625 1.53125q1.875 0 3.203125 -1.578125q1.34375 -1.59375 1.34375 -4.921875q0 -3.171875 -1.3125 -4.75q-1.296875 -1.578125 -3.109375 -1.578125q-1.796875 0 -3.1875 1.6875q-1.375 1.671875 -1.375 4.875zm15.25 14.5625l0 -22.953125l2.5625 0l0 2.15625q0.90625 -1.265625 2.046875 -1.890625q1.140625 -0.640625 2.765625 -0.640625q2.125 0 3.75 1.09375q1.625 1.09375 2.453125 3.09375q0.828125 1.984375 0.828125 4.359375q0 2.546875 -0.921875 4.59375q-0.90625 2.03125 -2.65625 3.125q-1.734375 1.078125 -3.65625 1.078125q-1.40625 0 -2.53125 -0.59375q-1.109375 -0.59375 -1.828125 -1.5l0 8.078125l-2.8125 0zm2.546875 -14.5625q0 3.203125 1.296875 4.734375q1.296875 1.53125 3.140625 1.53125q1.875 0 3.203125 -1.578125q1.34375 -1.59375 1.34375 -4.921875q0 -3.171875 -1.3125 -4.75q-1.296875 -1.578125 -3.109375 -1.578125q-1.796875 0 -3.1875 1.6875q-1.375 1.671875 -1.375 4.875z" fill-rule="nonzero"></path><path fill="#cfe2f3" d="m676.17346 59.507816l208.09448 0l0 208.09448l-208.09448 0z" fill-rule="nonzero"></path><path stroke="#000000" stroke-width="2.0" stroke-linejoin="round" stroke-linecap="butt" d="m676.17346 59.507816l208.09448 0l0 208.09448l-208.09448 0z" fill-rule="nonzero"></path><path fill="#000000" d="m751.56445 174.12537l0 -22.90625l7.890625 0q2.671875 0 4.078125 0.328125q1.96875 0.453125 3.359375 1.640625q1.8125 1.53125 2.703125 3.921875q0.90625 2.375 0.90625 5.4375q0 2.609375 -0.609375 4.625q-0.609375 2.015625 -1.5625 3.34375q-0.953125 1.3125 -2.09375 2.078125q-1.125 0.75 -2.734375 1.140625q-1.59375 0.390625 -3.671875 0.390625l-8.265625 0zm3.03125 -2.703125l4.890625 0q2.265625 0 3.546875 -0.421875q1.296875 -0.421875 2.0625 -1.1875q1.078125 -1.078125 1.671875 -2.890625q0.609375 -1.828125 0.609375 -4.421875q0 -3.59375 -1.1875 -5.515625q-1.171875 -1.9375 -2.859375 -2.59375q-1.21875 -0.46875 -3.921875 -0.46875l-4.8125 0l0 17.5zm19.953125 2.703125l0 -22.90625l8.59375 0q2.625 0 4.203125 0.703125q1.59375 0.6875 2.484375 2.140625q0.90625 1.4375 0.90625 3.015625q0 1.46875 -0.796875 2.765625q-0.796875 1.296875 -2.40625 2.09375q2.078125 0.609375 3.1875 2.078125q1.125 1.46875 1.125 3.46875q0 1.609375 -0.6875 3.0q-0.671875 1.375 -1.671875 2.125q-1.0 0.75 -2.515625 1.140625q-1.5 0.375 -3.6875 0.375l-8.734375 0zm3.03125 -13.28125l4.953125 0q2.015625 0 2.890625 -0.265625q1.15625 -0.34375 1.734375 -1.140625q0.59375 -0.796875 0.59375 -2.0q0 -1.140625 -0.546875 -2.0q-0.546875 -0.875 -1.5625 -1.1875q-1.015625 -0.328125 -3.484375 -0.328125l-4.578125 0l0 6.921875zm0 10.578125l5.703125 0q1.46875 0 2.0625 -0.109375q1.046875 -0.1875 1.75 -0.625q0.703125 -0.4375 1.15625 -1.265625q0.453125 -0.84375 0.453125 -1.9375q0 -1.28125 -0.65625 -2.21875q-0.65625 -0.953125 -1.828125 -1.328125q-1.15625 -0.390625 -3.34375 -0.390625l-5.296875 0l0 7.875zm27.890625 2.703125l-2.8125 0l0 -17.921875q-1.015625 0.96875 -2.671875 1.9375q-1.640625 0.96875 -2.953125 1.453125l0 -2.71875q2.359375 -1.109375 4.125 -2.6875q1.765625 -1.578125 2.5 -3.0625l1.8125 0l0 23.0z" fill-rule="nonzero"></path><path stroke="#ffffff" stroke-width="2.0" stroke-linejoin="round" stroke-linecap="butt" d="m291.45822 112.61074l377.92038 50.044533" fill-rule="evenodd"></path><path fill="#ffffff" stroke="#ffffff" stroke-width="2.0" stroke-linecap="butt" d="m669.3786 162.65527l-2.5249634 1.9344482l6.4213257 -1.4184875l-5.8308105 -3.040924z" fill-rule="evenodd"></path><path stroke="#ffffff" stroke-width="2.0" stroke-linejoin="round" stroke-linecap="butt" d="m291.45822 355.3643l378.5812 -188.75095" fill-rule="evenodd"></path><path fill="#ffffff" stroke="#ffffff" stroke-width="2.0" stroke-linecap="butt" d="m670.0394 166.61334l-1.0092773 3.0164185l4.5266724 -4.7701263l-6.5338135 0.7444z" fill-rule="evenodd"></path><path stroke="#ffffff" stroke-width="2.0" stroke-linejoin="round" stroke-linecap="butt" d="m291.45822 598.11786l380.1719 -429.4308" fill-rule="evenodd"></path><path fill="#ffffff" stroke="#ffffff" stroke-width="2.0" stroke-linecap="butt" d="m671.6301 168.68709l0.19317627 3.1749268l2.4121094 -6.1177673l-5.7802124 3.1360016z" fill-rule="evenodd"></path><path fill="#cfe2f3" d="m676.17346 443.5078l208.09448 0l0 208.09448l-208.09448 0z" fill-rule="nonzero"></path><path stroke="#000000" stroke-width="2.0" stroke-linejoin="round" stroke-linecap="butt" d="m676.17346 443.5078l208.09448 0l0 208.09448l-208.09448 0z" fill-rule="nonzero"></path><path fill="#000000" d="m751.56445 558.12537l0 -22.90625l7.890625 0q2.671875 0 4.078125 0.328125q1.96875 0.453125 3.359375 1.640625q1.8125 1.53125 2.703125 3.921875q0.90625 2.375 0.90625 5.4375q0 2.609375 -0.609375 4.625q-0.609375 2.015625 -1.5625 3.34375q-0.953125 1.3125 -2.09375 2.078125q-1.125 0.75 -2.734375 1.140625q-1.59375 0.390625 -3.671875 0.390625l-8.265625 0zm3.03125 -2.703125l4.890625 0q2.265625 0 3.546875 -0.421875q1.296875 -0.421875 2.0625 -1.1875q1.078125 -1.078125 1.671875 -2.890625q0.609375 -1.828125 0.609375 -4.421875q0 -3.59375 -1.1875 -5.515625q-1.171875 -1.9375 -2.859375 -2.59375q-1.21875 -0.46875 -3.921875 -0.46875l-4.8125 0l0 17.5zm19.953125 2.703125l0 -22.90625l8.59375 0q2.625 0 4.203125 0.703125q1.59375 0.6875 2.484375 2.140625q0.90625 1.4375 0.90625 3.015625q0 1.46875 -0.796875 2.765625q-0.796875 1.296875 -2.40625 2.09375q2.078125 0.609375 3.1875 2.078125q1.125 1.46875 1.125 3.46875q0 1.609375 -0.6875 3.0q-0.671875 1.375 -1.671875 2.125q-1.0 0.75 -2.515625 1.140625q-1.5 0.375 -3.6875 0.375l-8.734375 0zm3.03125 -13.28125l4.953125 0q2.015625 0 2.890625 -0.265625q1.15625 -0.34375 1.734375 -1.140625q0.59375 -0.796875 0.59375 -2.0q0 -1.140625 -0.546875 -2.0q-0.546875 -0.875 -1.5625 -1.1875q-1.015625 -0.328125 -3.484375 -0.328125l-4.578125 0l0 6.921875zm0 10.578125l5.703125 0q1.46875 0 2.0625 -0.109375q1.046875 -0.1875 1.75 -0.625q0.703125 -0.4375 1.15625 -1.265625q0.453125 -0.84375 0.453125 -1.9375q0 -1.28125 -0.65625 -2.21875q-0.65625 -0.953125 -1.828125 -1.328125q-1.15625 -0.390625 -3.34375 -0.390625l-5.296875 0l0 7.875zm32.078125 0l0 2.703125l-15.140625 0q-0.03125 -1.015625 0.328125 -1.953125q0.578125 -1.546875 1.84375 -3.046875q1.28125 -1.5 3.6875 -3.46875q3.734375 -3.0625 5.046875 -4.84375q1.3125 -1.796875 1.3125 -3.390625q0 -1.671875 -1.203125 -2.8125q-1.1875 -1.15625 -3.109375 -1.15625q-2.03125 0 -3.25 1.21875q-1.21875 1.21875 -1.234375 3.375l-2.890625 -0.296875q0.296875 -3.234375 2.234375 -4.921875q1.9375 -1.703125 5.203125 -1.703125q3.296875 0 5.21875 1.828125q1.921875 1.828125 1.921875 4.53125q0 1.375 -0.5625 2.703125q-0.5625 1.328125 -1.875 2.796875q-1.296875 1.46875 -4.328125 4.03125q-2.53125 2.125 -3.25 2.890625q-0.71875 0.75 -1.1875 1.515625l11.234375 0z" fill-rule="nonzero"></path><path stroke="#ffffff" stroke-width="2.0" stroke-linejoin="round" stroke-linecap="butt" stroke-dasharray="8.0,6.0" d="m291.45822 112.61074l380.17416 429.81033" fill-rule="evenodd"></path><path fill="#ffffff" stroke="#ffffff" stroke-width="2.0" stroke-linecap="butt" d="m671.6324 542.4211l-3.1748657 -0.19458008l5.7788696 3.1385498l-2.4094849 -6.1188354z" fill-rule="evenodd"></path><path stroke="#ffffff" stroke-width="2.0" stroke-linejoin="round" stroke-linecap="butt" stroke-dasharray="8.0,6.0" d="m291.45822 355.3643l378.58365 189.12766" fill-rule="evenodd"></path><path fill="#ffffff" stroke="#ffffff" stroke-width="2.0" stroke-linecap="butt" d="m670.0419 544.49194l-3.017273 1.006897l6.533264 0.74957275l-4.522888 -4.7737427z" fill-rule="evenodd"></path><path stroke="#ffffff" stroke-width="2.0" stroke-linejoin="round" stroke-linecap="butt" stroke-dasharray="8.0,6.0" d="m291.45822 598.11786l377.91953 -49.669617" fill-rule="evenodd"></path><path fill="#ffffff" stroke="#ffffff" stroke-width="2.0" stroke-linecap="butt" d="m669.37775 548.44824l-1.9368896 2.5230713l5.83374 -3.0352173l-6.419922 -1.4247437z" fill-rule="evenodd"></path><path fill="#ffff00" d="m445.0397 605.97217l0 0c-8.836731 0 -16.000336 -7.1636353 -16.000336 -16.000366l0 -464.81824c0 -4.2435455 1.6857605 -8.313286 4.6864014 -11.313934c3.0006409 -3.0006409 7.0703735 -4.6863785 11.313934 -4.6863785l63.99936 0c8.836731 0 16.000305 7.163582 16.000305 16.000313l0 464.81824l0 0c0 8.836731 -7.163574 16.000366 -16.000305 16.000366z" fill-rule="nonzero"></path><path stroke="#000000" stroke-width="2.0" stroke-linejoin="round" stroke-linecap="butt" d="m445.0397 605.97217l0 0c-8.836731 0 -16.000336 -7.1636353 -16.000336 -16.000366l0 -464.81824c0 -4.2435455 1.6857605 -8.313286 4.6864014 -11.313934c3.0006409 -3.0006409 7.0703735 -4.6863785 11.313934 -4.6863785l63.99936 0c8.836731 0 16.000305 7.163582 16.000305 16.000313l0 464.81824l0 0c0 8.836731 -7.163574 16.000366 -16.000305 16.000366z" fill-rule="nonzero"></path><path fill="#000000" d="m487.60968 413.80487l-22.90625 0l0 -3.109375l17.984375 -12.03125l-17.984375 0l0 -2.90625l22.90625 0l0 3.109375l-18.0 12.03125l18.0 0l0 2.90625zm-5.34375 -34.140625l0.359375 -2.90625q2.546875 0.6875 3.953125 2.546875q1.40625 1.859375 1.40625 4.75q0 3.640625 -2.234375 5.78125q-2.25 2.125 -6.296875 2.125q-4.1875 0 -6.5 -2.15625q-2.3125 -2.15625 -2.3125 -5.59375q0 -3.328125 2.265625 -5.4375q2.265625 -2.109375 6.375 -2.109375q0.25 0 0.75 0.015625l0 12.375q2.734375 -0.15625 4.1875 -1.546875q1.453125 -1.390625 1.453125 -3.46875q0 -1.546875 -0.8125 -2.640625q-0.8125 -1.09375 -2.59375 -1.734375zm-4.546875 9.234375l0 -9.265625q-2.09375 0.1875 -3.140625 1.0625q-1.625 1.34375 -1.625 3.484375q0 1.9375 1.296875 3.265625q1.296875 1.3125 3.46875 1.453125zm7.375 -21.8125l2.484375 -0.40625q0.25 1.1875 0.25 2.125q0 1.53125 -0.484375 2.375q-0.484375 0.84375 -1.265625 1.1875q-0.796875 0.34375 -3.328125 0.34375l-9.546875 0l0 2.0625l-2.1875 0l0 -2.0625l-4.109375 0l-1.6875 -2.796875l5.796875 0l0 -2.828125l2.1875 0l0 2.828125l9.703125 0q1.203125 0 1.546875 -0.140625q0.34375 -0.15625 0.546875 -0.484375q0.203125 -0.34375 0.203125 -0.96875q0 -0.46875 -0.109375 -1.234375zm2.515625 -5.8125l-16.59375 5.078125l0 -2.90625l9.578125 -2.640625l3.5625 -0.984375q-0.265625 -0.0625 -3.421875 -0.859375l-9.71875 -2.640625l0 -2.890625l9.625 -2.484375l3.171875 -0.828125l-3.203125 -0.953125l-9.59375 -2.84375l0 -2.734375l16.59375 5.1875l0 2.921875l-9.9375 2.640625l-2.828125 0.640625l12.765625 3.359375l0 2.9375zm-8.296875 -19.0q-4.609375 0 -6.828125 -2.5625q-1.84375 -2.140625 -1.84375 -5.21875q0 -3.421875 2.25 -5.59375q2.234375 -2.171875 6.1875 -2.171875q3.203125 0 5.046875 0.96875q1.828125 0.953125 2.84375 2.796875q1.015625 1.828125 1.015625 4.0q0 3.484375 -2.234375 5.640625q-2.234375 2.140625 -6.4375 2.140625zm0 -2.890625q3.1875 0 4.78125 -1.390625q1.578125 -1.390625 1.578125 -3.5q0 -2.09375 -1.59375 -3.484375q-1.59375 -1.390625 -4.859375 -1.390625q-3.078125 0 -4.65625 1.40625q-1.59375 1.390625 -1.59375 3.46875q0 2.109375 1.578125 3.5q1.578125 1.390625 4.765625 1.390625zm8.296875 -15.921875l-16.59375 0l0 -2.53125l2.515625 0q-1.765625 -0.96875 -2.328125 -1.78125q-0.5625 -0.828125 -0.5625 -1.8125q0 -1.421875 0.90625 -2.890625l2.609375 0.96875q-0.609375 1.03125 -0.609375 2.0625q0 0.921875 0.5625 1.65625q0.546875 0.734375 1.53125 1.046875q1.5 0.46875 3.28125 0.46875l8.6875 0l0 2.8125zm0 -10.703125l-22.90625 0l0 -2.8125l13.0625 0l-6.75 -6.65625l0 -3.640625l6.15625 6.34375l10.4375 -6.984375l0 3.46875l-8.484375 5.484375l1.90625 1.984375l6.578125 0l0 2.8125z" fill-rule="nonzero"></path><path stroke="#ff0000" stroke-width="8.0" stroke-linejoin="round" stroke-linecap="butt" d="m672.0 430.15485l220.62994 252.91339" fill-rule="nonzero"></path><path stroke="#ff0000" stroke-width="8.0" stroke-linejoin="round" stroke-linecap="butt" d="m869.5381 420.9239l-170.77167 278.77167" fill-rule="nonzero"></path></g></svg>

